# xmcd
#
# Track frame offsets:
#	150
#	13043
#	28335
#	39120
#	60859
#	74009
#	85034
#	96744
#	107981
#	120095
#	133562
#	145889
#
# Disc length: 2121 seconds
#
# Revision: 0
# Processed by: cddbd v1.5.2PL0 Copyright (c) Steve Scherf et al.
# Submitted via: audiograbber 1.83.01
#
DISCID=9f08470c
DTITLE=Cover-Songs - Super Hits `70
DYEAR=1970
DGENRE=Pop
TTITLE0=In The Summertime
TTITLE1=All Right Now
TTITLE2=It´s All In The Game
TTITLE3=Question
TTITLE4=Groovin´ With Mr. Bloe
TTITLE5=Daughter Of Darkness
TTITLE6=Up Around The Bend
TTITLE7=Yellow River
TTITLE8=Goodbye Sam, Hello Samantha
TTITLE9=American Woman
TTITLE10=Cottonfields
TTITLE11=Wand´rin Star
EXTD=
EXTT0=
EXTT1=
EXTT2=
EXTT3=
EXTT4=
EXTT5=
EXTT6=
EXTT7=
EXTT8=
EXTT9=
EXTT10=
EXTT11=
PLAYORDER=
